<svg width="65" height="30" viewBox="0 0 65 30" fill="none" xmlns="http://www.w3.org/2000/svg">
<path d="M20.7834 9.19193C20.3414 9.69861 19.6343 10.0982 18.9271 10.0411C18.8387 9.3561 19.1849 8.62819 19.5901 8.17862C20.032 7.65768 20.8054 7.28663 21.4316 7.25806C21.5052 7.9717 21.218 8.67103 20.7834 9.19193ZM21.4242 10.1767C20.4003 10.1196 19.5238 10.7405 19.0376 10.7405C18.5441 10.7405 17.8001 10.2053 16.9898 10.2196C15.9365 10.2338 14.9568 10.8118 14.4191 11.7324C13.3142 13.5735 14.1318 16.2994 15.1999 17.798C15.7229 18.5402 16.349 19.3537 17.174 19.3251C17.9548 19.2966 18.2642 18.8328 19.207 18.8328C20.1572 18.8328 20.4298 19.3251 21.2548 19.3109C22.1092 19.2966 22.647 18.5687 23.17 17.8266C23.7666 16.9845 24.0097 16.1639 24.0244 16.1211C24.0097 16.1068 22.3744 15.5002 22.3597 13.6734C22.345 12.1463 23.6488 11.4184 23.7077 11.3756C22.9711 10.3194 21.822 10.2053 21.4242 10.1767ZM27.3392 8.10729V19.2324H29.1217V15.4289H31.5894C33.8435 15.4289 35.4272 13.9303 35.4272 11.7609C35.4272 9.59156 33.8727 8.10729 31.6483 8.10729H27.3392ZM29.1217 9.56302H31.1769C32.7237 9.56302 33.6078 10.3623 33.6078 11.7681C33.6078 13.1739 32.7237 13.9803 31.1695 13.9803H29.1217V9.56302ZM38.683 19.318C39.8024 19.318 40.841 18.7685 41.3127 17.8979H41.3492V19.2324H42.9994V13.6948C42.9994 12.0892 41.6736 11.0545 39.6333 11.0545C37.7401 11.0545 36.3405 12.1034 36.289 13.545H37.8946C38.0272 12.8599 38.683 12.4103 39.5813 12.4103C40.6719 12.4103 41.2831 12.9027 41.2831 13.809V14.4227L39.0586 14.5511C36.9886 14.6724 35.8693 15.4931 35.8693 16.9203C35.8693 18.3618 37.0255 19.318 38.683 19.318ZM39.1616 17.9979C38.2114 17.9979 37.6075 17.5554 37.6075 16.8775C37.6075 16.1782 38.1895 15.7714 39.3015 15.7072L41.2831 15.5858V16.2138C41.2831 17.2557 40.3698 17.9979 39.1616 17.9979ZM45.202 22.2581C46.9403 22.2581 47.7579 21.6158 48.4725 19.6677L51.603 11.1615H49.7909L47.6918 17.7338H47.6549L45.5553 11.1615H43.6917L46.7119 19.2609L46.5497 19.7533C46.2772 20.5882 45.8355 20.9094 45.0471 20.9094C44.9072 20.9094 44.6346 20.8951 44.5243 20.8808V22.2153C44.6273 22.2438 45.0694 22.2581 45.202 22.2581Z" fill="white"/>
</svg>
