<svg width="66" height="30" viewBox="0 0 66 30" fill="none" xmlns="http://www.w3.org/2000/svg">
<path fill-rule="evenodd" clip-rule="evenodd" d="M14.6374 12.5089C17.1984 13.1664 19.792 11.5618 20.4304 8.92504C21.0688 6.28814 19.5106 3.61713 16.9497 2.95979C14.3895 2.30241 11.7959 3.90722 11.1578 6.54425C10.5191 9.1808 12.0775 11.8515 14.6374 12.5089ZM16.8433 5.9057C17.4922 6.13755 17.9667 6.48506 17.8734 7.13152C17.8059 7.60476 17.553 7.83386 17.2173 7.91421C17.6783 8.16317 17.913 8.54501 17.6895 9.20696C17.4121 10.0291 16.7532 10.0985 15.8769 9.92646L15.6643 10.8105L15.1504 10.6777L15.3603 9.80546C15.2271 9.77113 15.091 9.7347 14.9507 9.69521L14.7401 10.5715L14.2268 10.4387L14.4395 9.55296C14.3915 9.54023 14.3433 9.52715 14.2947 9.51404C14.2217 9.49425 14.1479 9.47429 14.0732 9.45489L13.4045 9.28197L13.6596 8.67177C13.6596 8.67177 14.0382 8.77626 14.0331 8.76851C14.1786 8.80585 14.2431 8.70748 14.2686 8.64188L14.6046 7.24435C14.6172 7.24749 14.6295 7.25067 14.6414 7.25377C14.6474 7.25532 14.6532 7.25682 14.6589 7.25833C14.6384 7.24981 14.6198 7.24435 14.6055 7.24056L14.8452 6.24289C14.8515 6.12964 14.8139 5.98679 14.6058 5.93289C14.6138 5.92725 14.2326 5.83662 14.2326 5.83662L14.3693 5.26729L15.0779 5.45083L15.0773 5.45358C15.1839 5.48107 15.2937 5.50718 15.4055 5.53359L15.6161 4.65816L16.1297 4.79103L15.9233 5.6493C16.0612 5.68194 16.2 5.71485 16.3351 5.74978L16.5399 4.89715L17.0538 5.02998L16.8433 5.9057ZM15.2179 9.08075C15.6373 9.19564 16.5536 9.44672 16.6993 8.8394C16.8486 8.21845 15.9599 8.01159 15.5262 7.91064C15.4777 7.89937 15.435 7.88939 15.3999 7.88031L15.1178 9.05378C15.1465 9.06118 15.1802 9.07043 15.2179 9.08075ZM15.6133 7.36608C15.9629 7.46286 16.7255 7.67393 16.8583 7.12197C16.9939 6.55737 16.2528 6.3872 15.8908 6.30406C15.8501 6.29472 15.8142 6.28647 15.7849 6.27889L15.529 7.34319C15.5532 7.34943 15.5815 7.35726 15.6133 7.36608Z" fill="white"/>
<path fill-rule="evenodd" clip-rule="evenodd" d="M28.2209 12.6562C30.8605 12.6562 33.0002 10.4526 33.0002 7.73431C33.0002 5.01607 30.8605 2.8125 28.2209 2.8125C25.5813 2.8125 23.4414 5.01607 23.4414 7.73431C23.4414 10.4526 25.5813 12.6562 28.2209 12.6562ZM28.2515 7.84542L27.9411 9.04917H30.3972L30.145 10.0167H26.2106L26.6123 8.46211L26.0436 8.67606L26.2317 7.94671L26.8008 7.73259L27.4825 5.09479H28.9609L28.4396 7.11607L29.1631 6.84387L29.1693 6.86142L28.9865 7.56888L28.2515 7.84542Z" fill="white"/>
<path d="M39.9309 7.03125L36.3457 8.66235L39.9309 10.7812L43.5148 8.66235L39.9309 7.03125Z" fill="white"/>
<path d="M36.3457 8.68879L40.1692 10.7812V2.8125L36.3457 8.68879Z" fill="white"/>
<path d="M40.1689 2.8125V10.7812L43.5145 8.68879L40.1689 2.8125Z" fill="white"/>
<path d="M36.3457 9.375L40.1692 14.0625V11.3408L36.3457 9.375Z" fill="white"/>
<path d="M40.1689 11.3408V14.0625L43.5145 9.375L40.1689 11.3408Z" fill="white"/>
<path d="M54.0106 9.00246C53.6807 8.81109 53.3093 8.7556 52.9413 8.74268C52.6324 8.73187 52.1718 8.53308 52.1718 7.96877C52.1718 7.54832 52.5113 7.20992 52.9413 7.19486C53.3093 7.18194 53.6811 7.1264 54.0106 6.93508C54.3071 6.7632 54.5532 6.516 54.7239 6.21837C54.8951 5.92071 54.9853 5.58304 54.9853 5.23932C54.9853 4.8956 54.8951 4.55793 54.7239 4.26026C54.5532 3.96259 54.3071 3.71544 54.0106 3.54356C53.7146 3.37172 53.3784 3.28125 53.0364 3.28125C52.694 3.28125 52.3583 3.37172 52.0618 3.5436C51.7657 3.71548 51.5197 3.96268 51.3485 4.26035C51.1777 4.55802 51.0876 4.89569 51.0876 5.23941C51.0876 5.61874 51.222 5.96787 51.3932 6.29168C51.5375 6.56403 51.6102 7.0695 51.1157 7.35622C50.7481 7.56952 50.2895 7.43446 50.06 7.06589C49.8665 6.75457 49.6329 6.46287 49.3054 6.27301C49.0093 6.10117 48.6731 6.0107 48.3312 6.0107C47.9892 6.0107 47.653 6.10117 47.357 6.27301C47.0605 6.44489 46.8144 6.69205 46.6437 6.98971C46.4725 7.28738 46.3823 7.62505 46.3823 7.96877C46.3823 8.31249 46.4725 8.65011 46.6437 8.94778C46.8144 9.24545 47.0605 9.49265 47.357 9.66449C47.653 9.83633 47.9892 9.92684 48.3312 9.92684C48.6731 9.92684 49.0093 9.83633 49.3054 9.66449C49.6329 9.47471 49.8665 9.18322 50.06 8.87208C50.2188 8.6166 50.6158 8.29095 51.1157 8.58136C51.4829 8.79449 51.5966 9.26146 51.3932 9.64608C51.2216 9.96984 51.0876 10.3189 51.0876 10.6982C51.0876 11.0419 51.1777 11.3796 51.3485 11.6772C51.5197 11.9749 51.7657 12.2221 52.0618 12.3939C52.3583 12.5658 52.694 12.6562 53.0364 12.6562C53.3784 12.6562 53.7146 12.5658 54.0106 12.3939C54.3071 12.2221 54.5527 11.9749 54.7239 11.6772C54.8951 11.3796 54.9853 11.0419 54.9853 10.6982C54.9853 10.3545 54.8951 10.0168 54.7239 9.71917C54.5532 9.4215 54.3071 9.17434 54.0106 9.00246Z" fill="white"/>
<path d="M13.7903 24.8438C15.4551 24.8438 16.7273 24.1071 17.2281 22.8482L15.2385 21.8438C14.8866 22.5268 14.3723 22.8214 13.7768 22.8214C12.8835 22.8214 12.1797 22.2054 12.1797 21.0804C12.1797 19.9821 12.8835 19.3661 13.7768 19.3661C14.3723 19.3661 14.8866 19.6607 15.2385 20.3437L17.2281 19.3393C16.7273 18.0804 15.4551 17.3438 13.7903 17.3438C11.327 17.3438 9.58105 18.8973 9.58105 21.0804C9.58105 23.2902 11.327 24.8438 13.7903 24.8438Z" fill="white"/>
<path d="M20.805 18.2881V17.4586H18.1836V24.375H20.9354V21.1975C20.9354 19.9853 21.703 19.4876 22.8182 19.4876C23.0209 19.4876 23.1947 19.5004 23.4409 19.5259V17.3438C22.2823 17.3438 21.3698 17.6628 20.805 18.2881Z" fill="white"/>
<path d="M29.9661 17.3438L28.0737 21.7173L26.1953 17.3438H23.4414L26.7179 24.5977C26.4919 25.0206 26.1953 25.2055 25.6728 25.2055C25.2491 25.2055 24.7972 25.047 24.4865 24.7827L23.5544 26.54C24.0628 26.9365 24.9667 27.1875 25.7717 27.1875C27.2828 27.1875 28.4126 26.6457 29.2176 24.7959L32.5223 17.3438H29.9661Z" fill="white"/>
<path d="M37.8327 17.3438C36.8265 17.3438 36.0753 17.608 35.5653 18.1762V17.4627H33V27.1875H35.6928V23.9899C36.2174 24.492 36.9398 24.7431 37.8327 24.7431C39.9164 24.7431 41.6029 23.3161 41.6029 21.0434C41.6029 18.7708 39.9164 17.3438 37.8327 17.3438ZM37.2661 22.7479C36.359 22.7479 35.6503 22.1269 35.6503 21.0434C35.6503 19.9599 36.359 19.3389 37.2661 19.3389C38.1731 19.3389 38.8818 19.9599 38.8818 21.0434C38.8818 22.1269 38.1731 22.7479 37.2661 22.7479Z" fill="white"/>
<path d="M47.1908 22.5558C46.978 22.7093 46.6987 22.793 46.419 22.793C45.9668 22.793 45.6605 22.486 45.6605 21.928V19.4169H47.3105V17.4358H45.6605V15.4688H43.1322V17.4358H42.0811V19.4169H43.1322V21.9559C43.1322 23.8951 44.2103 24.8438 46.0599 24.8438C46.7253 24.8438 47.377 24.7042 47.8163 24.4113L47.1908 22.5558Z" fill="white"/>
<path d="M52.5956 24.8438C55.1116 24.8438 56.8969 23.2768 56.8969 21.0804C56.8969 18.8973 55.1116 17.3438 52.5956 17.3438C50.1074 17.3438 48.2939 18.8973 48.2939 21.0804C48.2939 23.2768 50.1074 24.8438 52.5956 24.8438ZM52.5956 22.8214C51.696 22.8214 50.993 22.192 50.993 21.0804C50.993 19.9821 51.696 19.3661 52.5956 19.3661C53.5094 19.3661 54.1978 19.9821 54.1978 21.0804C54.1978 22.192 53.5094 22.8214 52.5956 22.8214Z" fill="white"/>
</svg>
