<svg width="65" height="30" viewBox="0 0 65 30" fill="none" xmlns="http://www.w3.org/2000/svg">
<path d="M50.1592 14.758V18.0555H50.9129H51.6667V14.758V11.4605H50.9129H50.1592V14.758Z" fill="white"/>
<path d="M52.5283 14.758V18.0555H53.3897H54.2512V14.758V11.4605H53.3897H52.5283V14.758Z" fill="white"/>
<path d="M60.712 12.6971C60.712 13.1092 60.6043 13.3153 60.389 13.3153C60.1736 13.3153 60.0659 13.5214 60.0659 13.9336C60.0659 14.387 60.1736 14.5519 60.4536 14.5519C60.7551 14.5519 60.8197 14.6962 60.7551 15.3763C60.6043 16.922 61.5303 18.0555 62.9732 18.0555C63.4255 18.0555 63.5116 17.9524 63.5116 17.4372C63.5116 16.9632 63.404 16.8189 63.1025 16.8189C62.5425 16.8189 62.3918 16.5304 62.3487 15.4587C62.3272 14.5931 62.3702 14.5519 62.9302 14.5519C63.4255 14.5519 63.5116 14.4695 63.5116 13.9336C63.5116 13.3978 63.4255 13.3153 62.9086 13.3153C62.3487 13.3153 62.3056 13.2535 62.3918 12.6971C62.4779 12.0994 62.4564 12.0788 61.595 12.0788C60.7551 12.0788 60.712 12.12 60.712 12.6971Z" fill="white"/>
<path d="M20.44 13.1092C20.44 13.6863 20.483 13.7069 21.6029 13.7687L22.7658 13.8306L21.4952 15.4793C20.8061 16.3861 20.2461 17.3342 20.2246 17.5815C20.2246 18.0349 20.2677 18.0555 22.5935 18.0555H24.9625V17.4372C24.9625 16.8395 24.9409 16.8395 23.6703 16.7777L22.3997 16.7159L23.6703 15.0053C25.5224 12.5528 25.4793 12.491 22.7012 12.491H20.44V13.1092Z" fill="white"/>
<path d="M36.3765 14.6343C36.3765 16.654 36.4195 16.8189 36.9364 17.4166C37.3886 17.9524 37.6471 18.0555 38.4008 18.0555C39.0469 18.0555 39.4345 17.9318 39.693 17.6639C40.0591 17.2723 40.0806 17.2723 40.4898 17.6639C40.7482 17.9112 41.2005 18.0555 41.6743 18.0555C43.3971 18.0555 43.914 17.2311 43.914 14.4489V12.491H43.0525H42.1911V14.6756V16.8395L41.6096 16.7777L41.0066 16.7159L40.942 14.5931L40.8774 12.491H40.1452H39.3915V14.387C39.3915 16.5304 39.2407 16.8807 38.5085 16.7777C38.0132 16.7159 37.9916 16.654 37.927 14.5931L37.8624 12.491H37.1302H36.3765V14.6343Z" fill="white"/>
<path d="M15.6807 13.913C15.1423 14.4489 15.0562 14.6756 15.0562 15.6854C15.0562 16.6953 15.1423 16.922 15.6807 17.4578C16.2191 17.9524 16.499 18.0555 17.4035 18.0555C18.5234 18.0555 19.5787 17.767 19.5787 17.4784C19.5787 17.396 19.4494 17.1487 19.3202 16.9632C19.0833 16.6747 18.911 16.654 18.3296 16.7983C17.8773 16.922 17.4035 16.922 17.0805 16.8189C16.0899 16.448 16.5421 16.2006 18.1788 16.2006H19.794V15.5824C19.794 14.1603 18.8249 13.3153 17.2097 13.3153C16.499 13.3153 16.176 13.439 15.6807 13.913ZM18.2434 14.9023C18.2865 15.0877 18.0496 15.1702 17.4466 15.1702C16.6067 15.1702 16.3698 15.0053 16.7144 14.6756C16.9513 14.4489 18.1358 14.6343 18.2434 14.9023Z" fill="white"/>
<path d="M26.2334 13.913C25.695 14.4489 25.6089 14.6756 25.6089 15.6854C25.6089 16.6953 25.695 16.922 26.2334 17.4578C26.7718 17.9524 27.0518 18.0555 27.9563 18.0555C29.0761 18.0555 30.1314 17.767 30.1314 17.4784C30.1314 17.396 30.0022 17.1487 29.873 16.9632C29.6361 16.6747 29.4638 16.654 28.8823 16.7983C28.4301 16.922 27.9563 16.922 27.6332 16.8189C26.6426 16.448 27.0949 16.2006 28.7316 16.2006H30.3467V15.4587C30.3467 14.5107 30.0452 14.0161 29.27 13.6245C28.2147 13.1092 26.9656 13.2123 26.2334 13.913ZM28.7962 14.9023C28.8392 15.0877 28.6024 15.1702 27.9994 15.1702C27.1595 15.1702 26.9226 15.0053 27.2671 14.6756C27.504 14.4489 28.6885 14.6343 28.7962 14.9023Z" fill="white"/>
<path d="M31.8325 13.6245C30.5834 14.284 30.4111 16.6746 31.5525 17.6021C32.0694 18.0348 32.3063 18.0967 33.5123 18.0142C35.0413 17.9318 35.3428 17.7463 35.149 17.0662C35.0413 16.654 34.9336 16.6128 34.3522 16.7365C33.4046 16.9632 32.6939 16.9013 32.4786 16.5716C32.3278 16.3655 32.6293 16.2831 33.8999 16.2418L35.5151 16.18V15.3556C35.5151 14.1603 34.6106 13.3153 33.3185 13.3153C32.8016 13.3359 32.134 13.4596 31.8325 13.6245ZM33.9645 14.9022C34.0076 15.0877 33.7707 15.1702 33.1677 15.1702C32.4786 15.1702 32.3278 15.1083 32.4355 14.8404C32.5862 14.4694 33.8138 14.5107 33.9645 14.9022Z" fill="white"/>
<path d="M45.2707 13.4596C44.7107 13.5626 44.6892 13.6657 45.0553 14.2427C45.2491 14.5725 45.5506 14.6549 46.369 14.6549C47.0366 14.6549 47.4673 14.758 47.5319 14.9022C47.575 15.0877 47.3166 15.1702 46.6059 15.1702C44.8615 15.1702 44.0001 16.5098 45.0769 17.5402C45.5506 17.9936 45.7875 18.0349 47.3381 18.0349H49.0825V16.2006C49.0825 14.4282 49.061 14.3664 48.4149 13.8512C47.7688 13.3153 46.7136 13.1917 45.2707 13.4596ZM47.575 16.3037C47.575 16.7571 46.7566 17.1074 46.369 16.7983C46.1321 16.6128 46.1106 16.4892 46.3044 16.2831C46.6274 15.8915 47.575 15.9121 47.575 16.3037Z" fill="white"/>
<path d="M55.522 13.913C54.9621 14.4489 54.8975 14.6549 54.8975 15.7472C54.8975 16.8807 54.9621 17.0456 55.5651 17.5196C56.0819 17.9318 56.448 18.0555 57.2664 18.0555C58.3647 18.0555 59.42 17.767 59.42 17.4784C59.42 17.396 59.2908 17.1487 59.1615 16.9632C58.9462 16.6953 58.7308 16.654 58.1278 16.7983C57.3095 16.9632 56.405 16.7777 56.405 16.4067C56.405 16.2831 57.051 16.2006 58.0201 16.2006H59.6353V15.5824C59.6353 14.1603 58.6662 13.3153 57.051 13.3153C56.3404 13.3153 56.0173 13.439 55.522 13.913ZM57.9986 14.861C58.0847 15.1083 57.934 15.1702 57.2664 15.1702C56.448 15.1702 56.2111 15.0053 56.5557 14.6962C56.8141 14.4282 57.8694 14.5519 57.9986 14.861Z" fill="white"/>
<path d="M3.42699 9.58512C2.13484 10.2446 1.68259 10.8835 1.55338 12.1613C1.46723 12.9444 1.51031 13.3154 1.68259 13.3154C1.81181 13.3154 1.91948 13.4597 1.91948 13.6245C1.91948 13.7894 2.02716 13.9337 2.13484 13.9337C2.26406 13.9337 2.45788 14.1604 2.58709 14.4077C2.78091 14.8199 2.71631 14.9848 2.15638 15.5412C1.66106 15.9946 1.48877 16.3656 1.48877 16.9014C1.48877 17.7464 1.83334 18.7357 2.09177 18.5914C2.19945 18.5296 2.26406 18.6738 2.26406 18.9005C2.24252 19.1891 2.54402 19.4776 3.16856 19.8279C4.05152 20.302 4.22381 20.3226 8.48788 20.3226H12.9027V19.1891V18.0555H8.85399C5.94667 18.0555 4.69759 17.9731 4.43916 17.7876C3.96538 17.4785 3.72849 15.9946 4.13766 15.9946C4.52531 15.9946 5.3652 15.129 5.3652 14.7374C5.3652 14.552 5.02063 14.1398 4.61145 13.7894C3.79309 13.0887 3.68541 12.5941 4.1592 11.9552C4.43916 11.6048 4.80527 11.5636 8.6817 11.5018L12.9027 11.44V10.3064V9.19354H8.55249C4.71913 9.21415 4.09459 9.25537 3.42699 9.58512Z" fill="#15C1C1"/>
<path d="M5.81771 12.9856C5.62389 13.2124 5.60236 13.3978 5.79618 13.707C6.01154 14.1192 6.20536 14.1398 9.13422 14.1398H12.2569V13.4184V12.6971H9.15575C6.72222 12.6971 6.01154 12.7589 5.81771 12.9856Z" fill="#15C1C1"/>
<path d="M5.81768 15.8298C5.68846 16.1595 5.73154 16.4068 5.96843 16.6748C6.26993 16.9839 6.65757 17.0251 9.22032 16.9839L12.1492 16.9221L12.2138 16.1389L12.2784 15.3764H9.13418C6.07611 15.3764 5.98997 15.397 5.81768 15.8298Z" fill="#15C1C1"/>
</svg>
