<svg width="67" height="30" viewBox="0 0 67 30" fill="none" xmlns="http://www.w3.org/2000/svg">
<path fill-rule="evenodd" clip-rule="evenodd" d="M6.32373 11.0922C6.78111 11.0145 7.22705 10.8036 7.68443 10.6482C7.83308 10.5705 7.83308 10.4263 7.83308 10.3597C7.83308 9.91568 7.83308 9.48279 7.91312 9.03881C8.14181 7.86225 8.97652 7.20738 10.4859 7.05199C11.1719 6.97429 11.9266 7.12968 12.6012 7.27398C12.7499 7.35167 12.8985 7.35167 12.7499 7.56256C12.6012 7.85115 12.5212 8.15084 12.3725 8.51713C12.2925 8.73912 12.2239 8.73912 11.9952 8.66142C11.7665 8.58373 11.4692 8.51713 11.1605 8.51713C10.3258 8.51713 10.0285 8.73912 9.7998 9.54939C9.57111 10.504 9.65115 10.5816 10.6345 10.5816H10.7832C12.0753 10.5816 12.0753 10.5816 11.9152 11.8359C11.9152 12.0579 11.8351 12.0579 11.6865 12.0579H10.1886C9.89127 12.0579 9.73119 12.1356 9.73119 12.5019V18.8952C9.73119 19.1838 9.65115 19.3392 9.35386 19.2615H8.14181C7.91312 19.1838 7.84451 19.0395 7.84451 18.8175V12.3576C7.84451 12.069 7.76447 11.9136 7.46717 11.9913H6.32373C6.32373 11.9802 6.32373 11.0922 6.32373 11.0922ZM60.4429 19.1061H58.8535C58.6248 19.1061 58.5562 19.0284 58.5562 18.8175V13.9559C58.5562 13.7339 58.5562 13.5119 58.4762 13.2899C58.3275 12.4131 57.8702 11.9691 56.9669 11.8914C55.7548 11.8137 54.8515 12.402 54.6228 13.5785C54.5427 14.0225 54.5428 14.4554 54.5428 14.9771V18.7287C54.5428 19.0173 54.4627 19.095 54.1654 19.095H52.9534C52.7247 19.095 52.6561 19.0173 52.6561 18.8064V10.8036C52.6561 10.5816 52.7361 10.5151 52.9534 10.5151C53.3307 10.5151 53.8567 10.3708 54.0854 10.5927C54.3141 10.8147 54.3141 11.2587 54.4627 11.6916C54.9887 11.0256 55.6748 10.6593 56.4294 10.4374C57.1841 10.2931 58.0188 10.2931 58.7735 10.5816C59.7569 10.8702 60.2828 11.6139 60.4429 12.5685C60.4429 12.6462 60.3629 12.7905 60.523 12.7905V13.0125C60.3743 13.1568 60.4429 13.301 60.4429 13.4564V19.1061Z" fill="white"/>
<path fill-rule="evenodd" clip-rule="evenodd" d="M60.4775 19.1062V13.4454C60.4775 13.3012 60.3975 13.1569 60.5576 13.0015L60.4775 19.1062Z" fill="white"/>
<path fill-rule="evenodd" clip-rule="evenodd" d="M42.8911 22.8911V22.9688H41.0044V22.8911H42.8911Z" fill="white"/>
<path fill-rule="evenodd" clip-rule="evenodd" d="M42.9599 14.866C42.9599 15.1546 43.0399 15.5986 43.0399 15.9649C43.0399 16.1869 43.12 16.3312 43.1886 16.5532C43.4173 17.2857 43.9432 17.7297 44.858 17.7297C45.8414 17.8074 46.3673 17.5077 46.8247 16.6975C47.122 16.1092 47.2021 15.4432 47.2021 14.866C47.2021 14.2001 47.122 13.4675 46.8247 12.8792C46.4474 12.2132 45.7613 11.847 44.938 11.9247C44.1033 12.0023 43.4973 12.2909 43.2 13.1789C42.9599 13.6895 42.9599 14.2001 42.9599 14.866ZM42.8798 22.8688H40.9932V15.0769V10.8924C40.9932 10.6038 41.0732 10.5261 41.3705 10.5261C41.7478 10.6038 42.2738 10.3818 42.5025 10.6038C42.7312 10.8258 42.7312 11.2698 42.7998 11.6361C42.9485 11.5584 43.0285 11.4141 43.0971 11.3475C44.3091 9.94893 47.568 9.88233 48.6199 12.3797C49.226 14.0003 49.226 15.6874 48.6199 17.2968C47.5565 19.8719 44.2291 19.7166 43.0171 18.2514L42.7884 18.0294C42.9599 19.7166 42.8798 21.326 42.8798 22.8688Z" fill="white"/>
<path fill-rule="evenodd" clip-rule="evenodd" d="M35.1609 14.644C35.241 14.866 35.0809 15.1546 35.4582 15.0103C36.4416 14.7883 37.1963 14.2 37.5736 13.3232C37.7223 12.9569 37.6537 12.5906 37.3449 12.3686C37.1162 12.1466 36.8189 12.2909 36.5102 12.3686C36.2815 12.4463 36.0528 12.5906 35.9042 12.8126C35.4582 13.4008 35.241 14.0557 35.1609 14.644ZM40.9925 15.088V17.3634C40.0892 17.9517 39.2545 18.6176 38.1911 18.9839C37.4364 19.2059 36.7503 19.4279 35.9156 19.2725C34.2462 19.0505 33.1142 17.9517 32.9655 16.3311C32.8169 14.5663 33.2628 12.9569 34.4749 11.5583C35.2296 10.6815 36.2129 10.3041 37.425 10.5261C38.8657 10.7481 39.7004 12.1466 39.163 13.4674C38.557 14.9326 37.3449 15.8206 35.8356 16.3311C35.3782 16.4754 35.3096 16.5531 35.6869 16.9194C35.9156 17.2857 36.293 17.3634 36.6703 17.2857C37.9624 17.1414 39.0144 16.5531 40.0778 15.8206C40.3865 15.5986 40.6838 15.3766 40.9925 15.088Z" fill="#BE2731"/>
<path fill-rule="evenodd" clip-rule="evenodd" d="M32.966 19.1283H30.9993C30.7706 19.1283 30.702 18.984 30.622 18.9063C29.9359 17.9518 29.3299 16.9972 28.6552 15.965C28.0492 16.9195 27.3631 17.7964 26.7685 18.6844C26.5399 18.9729 26.3112 19.1283 25.9338 19.1283C25.4078 19.0506 24.8704 19.1283 24.2644 19.1283C24.6417 18.5401 25.0191 18.0961 25.3964 17.5855C26.0024 16.7086 26.5284 15.8984 27.1344 15.0881C27.3631 14.7995 27.2831 14.6441 27.1344 14.4221C26.2311 13.1679 25.3164 11.9247 24.333 10.6039H26.4484C26.597 10.6039 26.597 10.7482 26.6771 10.8259C27.2031 11.6361 27.8091 12.4464 28.3465 13.3233C28.4265 13.401 28.4951 13.4676 28.5752 13.6118C29.1812 12.735 29.8673 11.7804 30.3933 10.8925C30.5419 10.6705 30.6906 10.6039 30.9192 10.6039H32.6573C32.7373 10.7482 32.5772 10.8925 32.5086 10.9702C31.6739 12.1467 30.7706 13.3899 29.9359 14.5664C29.7872 14.7884 29.7872 14.855 29.9359 15.077L32.6573 18.8286C32.7373 18.8286 32.8174 18.984 32.966 19.1283ZM20.2509 13.9115H21.989C22.069 13.9115 22.2176 13.9892 22.2176 13.7672C22.2977 12.957 21.6917 12.0801 20.8569 11.9358C19.5649 11.5695 18.3642 12.3798 18.2042 13.7006C18.2042 13.9226 18.2042 13.9892 18.4328 13.9892C19.0389 13.9115 19.6449 13.9115 20.2509 13.9115ZM23.7384 17.2192V18.5401C23.7384 18.6844 23.6584 18.762 23.5097 18.762C21.9203 19.3503 20.2509 19.4946 18.5929 18.9063C17.3008 18.3958 16.5462 17.3635 16.3175 16.0427C16.0888 14.6441 16.1688 13.3233 17.0035 12.0801C17.7582 10.8259 19.0503 10.393 20.4796 10.4596C21.8403 10.4596 22.9037 10.9702 23.6584 12.0801C24.1158 12.8127 24.1844 13.5453 24.1844 14.3555C24.1844 15.3101 24.1844 15.3101 23.201 15.3101H18.5815C18.2842 15.3101 18.2042 15.3878 18.2842 15.6764C18.5815 17.3635 19.6449 18.0961 21.463 17.8852C22.149 17.8075 22.8237 17.6632 23.4297 17.3746C23.5097 17.2858 23.5783 17.2192 23.7384 17.2192Z" fill="white"/>
<path fill-rule="evenodd" clip-rule="evenodd" d="M51.8906 14.7884V18.751C51.8906 18.973 51.8106 19.0396 51.5933 19.0396H50.3012C50.1526 19.0396 50.0039 19.0396 50.0039 18.8176V10.7371C50.0039 10.5151 50.084 10.5151 50.3012 10.5151H51.5933C51.8906 10.5151 51.8906 10.5928 51.8906 10.8037V14.7884ZM15.5634 13.1013V18.7621C15.5634 19.0507 15.4834 19.1284 15.1861 19.1284H14.0541C13.6767 19.1284 13.5967 19.0507 13.5967 18.7621V8.83905V7.4405C13.5967 7.15192 13.6767 7.07422 13.974 7.07422H15.1861C15.4834 7.07422 15.5634 7.15192 15.5634 7.4405C15.4834 9.36073 15.5634 11.1922 15.5634 13.1013Z" fill="white"/>
<path fill-rule="evenodd" clip-rule="evenodd" d="M50.9753 9.28297C50.2892 9.28297 49.9119 8.91668 49.8433 8.3284C49.8433 7.66243 50.2206 7.29614 50.9067 7.29614C51.5927 7.29614 51.9701 7.66243 51.9701 8.3284C52.0387 8.91668 51.6613 9.28297 50.9753 9.28297Z" fill="white"/>
</svg>
