<svg width="65" height="30" viewBox="0 0 65 30" fill="none" xmlns="http://www.w3.org/2000/svg">
<path d="M31.0463 14.5529V19.8013H29.4038V6.8432H33.7627C34.8697 6.8432 35.809 7.21763 36.5834 7.965C37.3705 8.71287 37.7636 9.62396 37.7636 10.6973C37.7636 11.7958 37.3705 12.7129 36.5834 13.4484C35.8217 14.1844 34.8804 14.5519 33.7627 14.5519H31.0463V14.5529ZM31.0463 8.43588V12.9602H33.7978C34.4527 12.9602 34.9946 12.7366 35.4237 12.29C35.8641 11.8443 36.084 11.3126 36.084 10.6973C36.084 10.0948 35.8641 9.56955 35.4237 9.12241C34.9946 8.6644 34.4527 8.43489 33.7978 8.43489H31.0463" fill="white"/>
<path d="M41.55 10.6439C42.7653 10.6439 43.7231 10.9723 44.4263 11.6301C45.1295 12.288 45.4792 13.1897 45.4792 14.3357V19.8013H43.9079V18.5707H43.8362C43.1578 19.5836 42.2532 20.0901 41.1218 20.0901C40.1576 20.0901 39.3486 19.8013 38.7014 19.2221C38.0514 18.6424 37.7271 17.9192 37.7271 17.0492C37.7271 16.1327 38.0684 15.4036 38.7536 14.861C39.4383 14.3179 40.3527 14.0459 41.4953 14.0459C42.4717 14.0459 43.2759 14.2274 43.9069 14.5885V14.2081C43.9069 13.6294 43.6806 13.1382 43.2281 12.7341C42.7745 12.329 42.2464 12.1277 41.6387 12.1277C40.7209 12.1277 39.9952 12.5195 39.4598 13.3049L38.0119 12.381C38.8112 11.2231 39.9889 10.6439 41.55 10.6439ZM39.4237 17.0863C39.4237 17.5211 39.6051 17.8826 39.9689 18.1725C40.3327 18.4613 40.757 18.6068 41.2457 18.6068C41.9372 18.6068 42.5517 18.3466 43.0935 17.8287C43.6358 17.3089 43.9069 16.701 43.9069 16.0016C43.3944 15.5906 42.6799 15.3863 41.7631 15.3863C41.0964 15.3863 40.5395 15.5495 40.0938 15.875C39.6475 16.2009 39.4237 16.6035 39.4237 17.0863Z" fill="white"/>
<mask id="mask0_1_751" style="mask-type:luminance" maskUnits="userSpaceOnUse" x="45" y="10" width="10" height="14">
<path d="M45.7061 10.8714H54.5004V23.7098H45.7061V10.8714Z" fill="white"/>
</mask>
<g mask="url(#mask0_1_751)">
<path d="M54.5004 10.9332L49.015 23.7098H47.3189L49.3554 19.2394L45.7471 10.9332H47.5344L50.142 17.3039H50.1771L52.7136 10.9332" fill="white"/>
</g>
<path d="M24.4058 13.4216C24.4058 12.8973 24.3619 12.3913 24.2795 11.9071H17.3486V14.7749H21.3183C21.1481 15.7098 20.6327 16.5051 19.8509 17.0373V18.8996H22.2201C23.607 17.6032 24.4058 15.687 24.4058 13.4216Z" fill="#4285F4"/>
<path d="M17.3488 20.698C19.3322 20.698 21.002 20.0382 22.2198 18.8996L19.8511 17.0373C19.1918 17.4874 18.3422 17.7506 17.3488 17.7506C15.4322 17.7506 13.8053 16.4413 13.2231 14.677H10.7827V16.5946C11.9922 19.0277 14.4779 20.698 17.3488 20.698Z" fill="#34A853"/>
<path d="M13.2231 14.677C13.0743 14.2274 12.9929 13.7471 12.9929 13.2515C12.9929 12.7564 13.0743 12.2766 13.2231 11.8265V9.90833H10.7827C10.2829 10.9139 10 12.049 10 13.2515C10 14.4544 10.2829 15.5905 10.7827 16.5946" fill="#FABB05"/>
<path d="M17.3488 8.75341C18.432 8.75341 19.4029 9.13081 20.1686 9.87026V9.87125L22.2661 7.74587C20.9918 6.54443 19.3312 5.80646 17.3488 5.80646C14.4779 5.80646 11.9922 7.4758 10.7827 9.90835L13.2231 11.8265C13.8053 10.0622 15.4322 8.75341 17.3488 8.75341Z" fill="#E94235"/>
</svg>
