<svg width="65" height="30" viewBox="0 0 65 30" fill="none" xmlns="http://www.w3.org/2000/svg">
<mask id="mask0_1_782" style="mask-type:luminance" maskUnits="userSpaceOnUse" x="16" y="2" width="34" height="25">
<path d="M49.0357 2.87708H16.374V26.9642H49.0357V2.87708Z" fill="white"/>
</mask>
<g mask="url(#mask0_1_782)">
<path d="M22.3181 26.8312V25.236C22.3461 24.7043 21.9536 24.2523 21.3929 24.2257C21.3368 24.2257 21.3088 24.2257 21.2527 24.2257C20.8883 24.1991 20.5238 24.3853 20.2995 24.6777C20.1033 24.3853 19.7668 24.1991 19.4024 24.2257C19.094 24.1991 18.7856 24.3586 18.6174 24.5979V24.2789H18.0566V26.8312H18.6454V25.4221C18.5893 25.1031 18.8417 24.784 19.1781 24.7575C19.2061 24.7575 19.2622 24.7575 19.2902 24.7575C19.6827 24.7575 19.879 24.9967 19.879 25.4221V26.8312H20.4677V25.4221C20.4117 25.1031 20.664 24.784 21.0004 24.7575C21.0284 24.7575 21.0845 24.7575 21.1125 24.7575C21.5051 24.7575 21.7013 24.9967 21.7013 25.4221V26.8312H22.3181ZM31.0372 24.3055H30.084V23.5345H29.4953V24.3055H28.9626V24.8106H29.4953V25.9804C29.4953 26.5653 29.7476 26.911 30.4204 26.911C30.6728 26.911 30.9251 26.8312 31.1494 26.7248L30.9811 26.2463C30.813 26.326 30.6447 26.3792 30.4765 26.3792C30.1961 26.3792 30.084 26.2197 30.084 25.9538V24.784H31.0372V24.3055ZM35.9997 24.2257C35.7192 24.2257 35.4387 24.3586 35.2988 24.5979V24.2789H34.7097V26.8312H35.2988V25.3955C35.2988 24.9701 35.4948 24.7309 35.8594 24.7309C35.9716 24.7309 36.1119 24.7575 36.2237 24.784L36.392 24.2523C36.2798 24.2523 36.1399 24.2257 35.9997 24.2257ZM28.486 24.4916C28.1495 24.3055 27.7851 24.2257 27.3926 24.2257C26.7197 24.2257 26.2711 24.5448 26.2711 25.0499C26.2711 25.4753 26.6076 25.7145 27.1963 25.7943L27.4767 25.8209C27.7851 25.8741 27.9533 25.9538 27.9533 26.0868C27.9533 26.2729 27.729 26.4058 27.3365 26.4058C27.0281 26.4058 26.6917 26.326 26.4394 26.1399L26.159 26.5653C26.4954 26.778 26.9159 26.911 27.3085 26.8843C28.0935 26.8843 28.542 26.5387 28.542 26.0602C28.542 25.5816 28.1776 25.3689 27.6169 25.2892L27.3365 25.2626C27.0842 25.236 26.8879 25.1828 26.8879 25.0233C26.8879 24.8638 27.0842 24.7309 27.3926 24.7309C27.701 24.7309 27.9813 24.8106 28.2336 24.9435L28.486 24.4916ZM44.1021 24.2257C43.8216 24.2257 43.5411 24.3586 43.4012 24.5979V24.2789H42.8121V26.8312H43.4012V25.3955C43.4012 24.9701 43.5972 24.7309 43.9618 24.7309C44.074 24.7309 44.2139 24.7575 44.3261 24.784L44.4944 24.2523C44.3822 24.2523 44.2419 24.2257 44.1021 24.2257ZM36.5883 25.555C36.5603 26.2729 37.149 26.8578 37.8779 26.8843C37.934 26.8843 37.9621 26.8843 38.0182 26.8843C38.3544 26.911 38.719 26.8046 38.9715 26.5919L38.691 26.1399C38.4946 26.2729 38.2426 26.3526 37.9901 26.3792C37.5136 26.3526 37.177 25.9538 37.2051 25.5019C37.2331 25.1031 37.5697 24.784 37.9901 24.7575C38.2426 24.7575 38.4946 24.8372 38.691 24.9967L38.9715 24.5448C38.691 24.3321 38.3544 24.2257 38.0182 24.2523C37.2612 24.1991 36.6444 24.7575 36.5883 25.4487C36.5883 25.4753 36.5883 25.5019 36.5883 25.555ZM42.0551 25.555V24.2789H41.4665V24.5979C41.2701 24.3586 40.9619 24.2257 40.6253 24.2257C39.8403 24.2257 39.2236 24.8106 39.2236 25.555C39.2236 26.2995 39.8403 26.8843 40.6253 26.8843C40.9619 26.8843 41.2701 26.7514 41.4665 26.5121V26.8312H42.0551V25.555ZM39.8683 25.555C39.8964 25.1297 40.2891 24.8106 40.7375 24.8372C41.1863 24.8638 41.5226 25.236 41.4945 25.6614C41.4665 26.0602 41.1302 26.3792 40.6814 26.3792C40.233 26.3792 39.8683 26.0602 39.8683 25.6348C39.8683 25.6082 39.8683 25.5816 39.8683 25.555ZM32.8315 24.2257C32.0465 24.2257 31.4297 24.8372 31.4578 25.5816C31.4858 26.326 32.1026 26.911 32.8876 26.8843C33.2799 26.911 33.7007 26.778 34.0088 26.5387L33.7287 26.1399C33.5043 26.2995 33.2242 26.4058 32.9437 26.4058C32.551 26.4324 32.1867 26.1665 32.1306 25.7943H34.121C34.121 25.7145 34.121 25.6614 34.121 25.5816C34.121 24.7575 33.5885 24.2257 32.8315 24.2257ZM32.8315 24.7309C33.1961 24.7309 33.5043 24.9967 33.5043 25.3423H32.1026C32.1306 24.9967 32.4671 24.7043 32.8315 24.7309ZM47.4382 25.555V23.2686H46.8775V24.5979C46.6812 24.3586 46.3726 24.2257 46.0364 24.2257C45.2514 24.2257 44.6346 24.8106 44.6346 25.555C44.6346 26.2995 45.2514 26.8843 46.0364 26.8843C46.3726 26.8843 46.6812 26.7514 46.8775 26.5121V26.8312H47.4382V25.555ZM48.4196 26.459C48.4476 26.459 48.5033 26.459 48.5314 26.4855C48.5594 26.4855 48.5875 26.5122 48.6155 26.5387C48.6436 26.5653 48.6716 26.5919 48.6716 26.6185C48.6997 26.6717 48.6997 26.7514 48.6716 26.8046C48.6436 26.8312 48.6436 26.8578 48.6155 26.8843C48.5875 26.911 48.5594 26.9375 48.5314 26.9375C48.5033 26.9641 48.4757 26.9641 48.4196 26.9641C48.3074 26.9641 48.2232 26.911 48.1671 26.8046C48.1391 26.7514 48.1391 26.6717 48.1671 26.6185C48.1952 26.5919 48.1952 26.5653 48.2232 26.5387C48.2513 26.5122 48.2793 26.4855 48.3074 26.4855C48.3635 26.459 48.3915 26.459 48.4196 26.459ZM48.4196 26.911C48.4476 26.911 48.4757 26.911 48.5033 26.8843C48.5314 26.8843 48.5594 26.8578 48.5594 26.8312C48.6436 26.7514 48.6436 26.6451 48.5594 26.5653C48.5314 26.5387 48.5314 26.5387 48.5033 26.5121C48.4757 26.5121 48.4476 26.4855 48.4196 26.4855C48.3915 26.4855 48.3635 26.4855 48.3354 26.5121C48.3074 26.5121 48.2793 26.5387 48.2793 26.5653C48.1952 26.6451 48.1952 26.7514 48.2793 26.8312C48.3074 26.8578 48.3354 26.8578 48.3354 26.8843C48.3635 26.911 48.3915 26.911 48.4196 26.911ZM48.4476 26.5919C48.4757 26.5919 48.5033 26.5919 48.5314 26.6185C48.5594 26.6451 48.5594 26.6451 48.5594 26.6717C48.5594 26.6982 48.5594 26.6982 48.5314 26.7248C48.5033 26.7514 48.5033 26.7514 48.4757 26.7514L48.5594 26.8312H48.5033L48.4196 26.7514H48.3915V26.8312H48.3354V26.5919H48.4476ZM48.3915 26.6451V26.6982H48.4476H48.4757V26.6717V26.6451H48.4476H48.3915ZM45.3075 25.555C45.3355 25.1297 45.7279 24.8106 46.1767 24.8372C46.6251 24.8638 46.9617 25.236 46.9336 25.6614C46.9056 26.0602 46.569 26.3792 46.1206 26.3792C45.6718 26.3792 45.3075 26.0602 45.3075 25.6348C45.2794 25.6082 45.3075 25.5816 45.3075 25.555ZM25.5983 25.555V24.2789H25.0095V24.5979C24.8133 24.3586 24.5049 24.2257 24.1684 24.2257C23.3835 24.2257 22.7667 24.8106 22.7667 25.555C22.7667 26.2995 23.3835 26.8843 24.1684 26.8843C24.5049 26.8843 24.8133 26.7514 25.0095 26.5121V26.8312H25.5983V25.555ZM23.4395 25.555C23.4676 25.1297 23.86 24.8106 24.3086 24.8372C24.7572 24.8638 25.0936 25.236 25.0656 25.6614C25.0376 26.0602 24.7011 26.3792 24.2526 26.3792C23.804 26.3792 23.4395 26.0602 23.4395 25.6348C23.4395 25.6082 23.4395 25.5816 23.4395 25.555Z" fill="white"/>
<path d="M37.1205 4.92419H28.2891V19.9721H37.1205V4.92419Z" fill="#FF5F00"/>
<path d="M28.8498 12.4478C28.8498 9.5233 30.2797 6.73174 32.7189 4.92387C28.3172 1.65377 21.9811 2.37157 18.5327 6.54562C15.0843 10.7197 15.8412 16.7016 20.2428 19.9717C23.9155 22.7101 29.0461 22.7101 32.7189 19.9717C30.2797 18.1638 28.8498 15.3988 28.8498 12.4478Z" fill="#EB001B"/>
<path d="M49.0361 12.4482C49.0361 17.7389 44.5226 22.0193 38.9432 22.0193C36.6723 22.0193 34.4855 21.3014 32.7195 19.9721C37.0931 16.702 37.85 10.6935 34.4017 6.54606C33.8968 5.93457 33.3362 5.40286 32.6914 4.92431C37.065 1.65418 43.429 2.37201 46.8773 6.54606C48.2791 8.22099 49.0361 10.2947 49.0361 12.4482Z" fill="#F79E1B"/>
<path d="M48.0826 18.3769V18.0579H48.2225V18.0047H47.8862V18.0579H48.0265V18.3769H48.0826ZM48.7274 18.3769V18.0047H48.6152L48.503 18.2706L48.3908 18.0047H48.3066V18.3769H48.3908V18.111L48.503 18.3503H48.5871L48.6993 18.111V18.4035L48.7274 18.3769Z" fill="#F79E1B"/>
</g>
</svg>
