<svg width="65" height="30" viewBox="0 0 65 30" fill="none" xmlns="http://www.w3.org/2000/svg">
<path d="M47.0215 7.70578C47.0105 7.68481 46.9992 7.66383 46.9992 7.65335C46.8988 7.34919 46.7645 7.05552 46.6083 6.78283C44.8879 3.82514 39.9834 4.91592 35.2351 7.97848C35.1011 8.06237 35.0453 8.2302 35.1121 8.37702L36.3411 10.1915C36.4528 10.3698 36.6985 10.4327 36.8887 10.3278C36.9109 10.3173 36.9222 10.3068 36.9445 10.2964C40.5755 7.57991 44.7759 6.14303 46.5411 7.41211C46.6083 7.45406 46.6528 7.52747 46.6751 7.60091C46.8762 8.1253 46.9992 8.68117 47.0328 9.23705C47.0328 9.24753 47.0328 9.24753 47.0328 9.25805C47.0328 9.32097 47.0328 9.39438 47.0328 9.4573C47.0328 9.49925 47.0328 9.55172 47.0328 9.59367C47.0328 9.61464 47.0328 9.6461 47.0328 9.67756C46.843 13.8099 40.8211 15.2363 37.1456 11.8381C37.3468 12.0374 37.5589 12.2157 37.7823 12.3835C37.4585 12.1423 37.1566 11.8801 36.8774 11.5969L36.8551 11.5654C34.9781 9.35243 34.777 8.25117 33.6041 7.11845C29.2246 3.12243 23.147 4.77956 19.1698 9.07974C18.6559 9.61464 18.1867 10.1915 17.7845 10.7998C17.7063 10.9047 17.6393 11.0201 17.5611 11.1354L17.6058 11.083C17.5611 11.1564 17.5164 11.2298 17.4829 11.2928C17.4158 11.3976 17.36 11.5025 17.3041 11.6179C16.6226 12.9184 16.4215 14.219 16.8572 15.3202C18.0079 18.236 23.1135 18.7289 28.2638 16.4215C29.5263 15.8551 30.1295 15.551 31.1238 14.8063C31.459 14.5546 31.4702 13.6316 31.2244 13.3065L30.4312 12.3835C30.2971 12.1842 29.9284 12.1633 29.7385 12.3206C29.2693 12.6982 29.1576 12.803 28.7889 13.0862C24.2866 16.5788 19.4379 17.7325 17.9521 15.6663C17.9297 15.6349 17.9074 15.6034 17.885 15.5614C17.5052 14.9217 17.2929 14.198 17.2818 13.4638C17.2929 12.4989 17.751 11.3662 18.3543 10.3803C18.3766 10.3488 18.399 10.3173 18.4213 10.2964C19.7396 9.13218 22.3985 7.32822 25.8618 7.73724C29.4369 8.15679 30.0178 12.4569 35.3132 14.9951C39.0336 16.7781 44.586 15.96 46.854 13.2855L46.8094 13.3379C48.0272 11.9116 48.34 10.0132 47.0215 7.70578ZM17.1365 12.3101C17.1477 12.2367 17.1589 12.1738 17.1812 12.1003C17.1589 12.1738 17.1477 12.2472 17.1365 12.3101Z" fill="white"/>
<path d="M21.0982 20.1218C21.0684 20.11 21.0376 20.1008 21.0061 20.0945C20.7568 20.0324 20.1392 20.0125 19.9398 20.1701L19.9289 20.1796C19.8956 20.2092 19.8688 20.245 19.8498 20.2847C19.2707 21.0303 18.7352 21.8069 18.246 22.6108L16.7538 20.29L16.7484 20.2784C16.7286 20.2383 16.7005 20.2025 16.666 20.1733L16.6563 20.1649C16.4829 20.0251 15.9638 20.0293 15.681 20.0766C15.6139 20.0834 15.548 20.0986 15.4848 20.1218C15.4299 20.1443 15.3829 20.1818 15.3496 20.2298C15.3163 20.2777 15.2982 20.3341 15.2974 20.3919V25.2911C15.2974 25.3889 15.344 25.5602 15.6561 25.6065C15.7599 25.6201 15.8645 25.6264 15.9692 25.6254C16.1859 25.6254 16.6422 25.6254 16.6422 25.2911V22.4689C16.7397 22.6182 16.925 22.9104 17.1298 23.2772C17.4145 23.788 17.6055 24.122 17.7031 24.2789L17.7605 24.384C17.8117 24.4593 17.8767 24.5249 17.9523 24.5774C18.1154 24.671 18.3094 24.7004 18.4942 24.6594C18.5398 24.6475 18.5826 24.6268 18.6199 24.5984C18.7027 24.5437 18.7759 24.4762 18.8366 24.3987L18.9666 24.177C19.0295 24.0711 19.1769 23.8063 19.4087 23.3823C19.6407 22.9584 19.817 22.6497 19.9376 22.4563C19.9376 22.4563 19.9376 22.9871 19.9376 23.0165V25.2974C19.9376 25.6317 20.3916 25.6317 20.6095 25.6317C20.8273 25.6317 21.2813 25.6317 21.2813 25.2974V20.3961C21.2817 20.3381 21.2646 20.2811 21.2321 20.2324C21.1996 20.1836 21.153 20.1452 21.0982 20.1218Z" fill="white"/>
<path d="M22.7769 22.2188C22.3387 22.2188 22.2788 22.2928 22.2788 22.3732V25.4783C22.2788 25.5576 22.3387 25.6317 22.7769 25.6317C23.2151 25.6317 23.2761 25.5576 23.2761 25.4783V22.3711C23.2761 22.2928 23.2118 22.2188 22.7769 22.2188Z" fill="white"/>
<path d="M22.9432 25.6317C22.7288 25.6317 22.2788 25.6317 22.2788 25.3044V22.2357C22.2788 21.9084 22.7278 21.9084 22.9432 21.9084C23.1585 21.9084 23.6086 21.9084 23.6086 22.2357V25.2982C23.6086 25.6317 23.1596 25.6317 22.9432 25.6317ZM22.6442 25.2581C22.8426 25.2883 23.0448 25.2883 23.2432 25.2581V22.2841C23.0448 22.2539 22.8426 22.2539 22.6442 22.2841V25.2581Z" fill="white"/>
<path d="M27.6892 20.3571H25.0278C24.7486 20.3667 24.606 20.3933 24.606 20.5125V25.4752C24.606 25.5561 24.6614 25.6317 25.0648 25.6317C25.4681 25.6317 25.5246 25.5561 25.5246 25.4752V23.425H27.4264C27.5732 23.425 27.6676 23.2525 27.6676 22.9853C27.6676 22.7182 27.5732 22.5447 27.4264 22.5447H25.5246V21.2406H27.6892C27.836 21.2406 27.9304 21.0682 27.9304 20.801C27.9304 20.5338 27.836 20.3571 27.6892 20.3571Z" fill="white"/>
<path d="M24.9617 25.6317C24.739 25.6317 24.2734 25.6317 24.2734 25.3152V20.6716C24.2734 20.373 24.6599 20.3641 24.9149 20.3571H27.8106C28.0188 20.3571 28.2628 20.5094 28.2628 20.9393C28.2628 21.3692 28.0188 21.5205 27.8106 21.5205H25.6489V22.4022H27.5232C27.7315 22.4022 27.9754 22.5545 27.9754 22.9844C27.9754 23.4144 27.7315 23.5656 27.5232 23.5656H25.6489V25.3122C25.6489 25.6317 25.1845 25.6317 24.9617 25.6317ZM24.6532 25.2704C24.8572 25.2996 25.0651 25.2996 25.2691 25.2704V23.2253H27.5232C27.5433 23.2193 27.5956 23.1477 27.5956 22.9834C27.5956 22.8192 27.5433 22.7476 27.5244 22.7406H25.2691V21.1801H27.8084C27.8206 21.1801 27.8807 21.1154 27.8807 20.9383C27.8807 20.7612 27.8206 20.6995 27.8095 20.6955H24.9205C24.8309 20.6961 24.7415 20.7034 24.6532 20.7174V25.2704Z" fill="white"/>
<path d="M35.1178 20.3571C34.7139 20.3571 34.6587 20.439 34.6587 20.5188V23.7924L32.4828 20.4496L32.4729 20.4369C32.3701 20.3305 31.8022 20.3486 31.6731 20.405C31.6489 20.412 31.6275 20.4268 31.612 20.4472C31.5965 20.4677 31.5877 20.4928 31.5869 20.5188V25.4642C31.5869 25.5164 31.5869 25.6259 32.0452 25.6259C32.5035 25.6259 32.5045 25.5196 32.5045 25.4642V22.197L34.6813 25.5323C34.7325 25.6057 34.921 25.6312 35.1045 25.6312C35.2255 25.6343 35.3465 25.6214 35.4645 25.5929C35.5566 25.5632 35.5762 25.5079 35.5762 25.4674V20.522C35.5762 20.439 35.522 20.3571 35.1178 20.3571Z" fill="white"/>
<path d="M35.2174 25.6316C34.7893 25.6316 34.6673 25.5381 34.6101 25.4684L32.6134 22.8018V25.3092C32.6134 25.6296 32.1547 25.6296 31.9334 25.6296C31.7122 25.6296 31.2544 25.6296 31.2544 25.3092V20.6825C31.255 20.6246 31.2753 20.5682 31.3125 20.521C31.3497 20.4739 31.402 20.4382 31.4624 20.4188C31.6033 20.3661 32.3199 20.3014 32.5243 20.4855L32.5586 20.5233L34.5496 23.1839V20.6785C34.5496 20.3571 35.026 20.3571 35.2294 20.3571C35.4332 20.3571 35.9086 20.3571 35.9086 20.6785V25.3052C35.9063 25.37 35.8807 25.4324 35.8355 25.4828C35.7902 25.5333 35.7284 25.5691 35.6589 25.5848C35.5143 25.6171 35.366 25.6328 35.2174 25.6316ZM34.9059 25.2585C35.0067 25.2861 35.1124 25.2976 35.2174 25.2923C35.3242 25.2939 35.4305 25.2859 35.5356 25.2684V20.7203C35.3341 20.6884 35.1283 20.6884 34.9269 20.7203V24.2913L32.2614 20.7273C32.0529 20.6913 31.839 20.6893 31.6297 20.7213V25.2634C31.831 25.2954 32.037 25.2954 32.2383 25.2634V21.6934L34.9059 25.2585Z" fill="white"/>
<path d="M37.4049 20.3571C36.9671 20.3571 36.9062 20.4327 36.9062 20.5146V25.4753C36.9062 25.5561 36.9671 25.6317 37.4049 25.6317C37.8427 25.6317 37.9036 25.5561 37.9036 25.4753V20.5146C37.9026 20.4327 37.8481 20.3571 37.4049 20.3571Z" fill="white"/>
<path d="M37.5711 25.6317C37.3567 25.6317 36.9062 25.6317 36.9062 25.3153V20.6735C36.9062 20.3571 37.3557 20.3571 37.5711 20.3571C37.7866 20.3571 38.236 20.3571 38.236 20.6735V25.3113C38.235 25.6317 37.7856 25.6317 37.5711 25.6317ZM37.2709 25.2705C37.4697 25.2997 37.6725 25.2997 37.8713 25.2705V20.7182C37.6725 20.689 37.4697 20.689 37.2709 20.7182V25.2705Z" fill="white"/>
<path d="M29.7584 20.3571C29.3152 20.3571 29.2598 20.4327 29.2598 20.5146V25.4753C29.2598 25.5561 29.3196 25.6317 29.7584 25.6317C30.1973 25.6317 30.2571 25.5561 30.2571 25.4753V20.5146C30.2571 20.4327 30.1962 20.3571 29.7584 20.3571Z" fill="white"/>
<path d="M29.5921 25.6317C29.3776 25.6317 28.9272 25.6317 28.9272 25.3153V20.6735C28.9272 20.3571 29.3766 20.3571 29.5921 20.3571C29.8077 20.3571 30.257 20.3571 30.257 20.6735V25.3113C30.257 25.6317 29.8077 25.6317 29.5921 25.6317ZM29.2919 25.2705C29.4908 25.2997 29.6935 25.2997 29.8924 25.2705V20.7182C29.6935 20.689 29.4908 20.689 29.2919 20.7182V25.2705Z" fill="white"/>
<path d="M43.0724 20.3571H39.3837C39.3065 20.3571 39.2334 20.4146 39.2334 20.8329C39.2334 21.2513 39.3065 21.3088 39.3837 21.3088H40.7746V25.4752C40.7746 25.5561 40.8295 25.6317 41.2287 25.6317C41.6277 25.6317 41.6825 25.5561 41.6825 25.4752V21.3088H43.0724C43.1506 21.3088 43.2227 21.2513 43.2227 20.8329C43.2227 20.4146 43.1506 20.3571 43.0724 20.3571Z" fill="white"/>
<path d="M41.2303 25.6317C41.0122 25.6317 40.5561 25.6317 40.5561 25.3153V21.586H39.2476C38.9009 21.586 38.9009 21.171 38.9009 20.972C38.9009 20.773 38.9009 20.3571 39.2476 20.3571H43.2073C43.5551 20.3571 43.5551 20.773 43.5551 20.972C43.5551 21.171 43.5551 21.586 43.2073 21.586H41.8985V25.3113C41.9028 25.6317 41.4484 25.6317 41.2303 25.6317ZM40.9281 25.2705C41.1282 25.2996 41.332 25.2996 41.5322 25.2705V21.2476H43.1648C43.1967 21.0651 43.1967 20.879 43.1648 20.6964H39.2988C39.2669 20.879 39.2669 21.0651 39.2988 21.2476H40.9281V25.2705Z" fill="white"/>
<path d="M48.7559 20.4012C48.5764 20.3395 47.8965 20.3235 47.7689 20.481L46.5445 22.3555L45.3171 20.4832C45.1981 20.3278 44.5229 20.3395 44.3431 20.4002C44.2413 20.4332 44.2197 20.4896 44.2197 20.5321V20.5577L46.0598 23.3794V25.4518C46.0598 25.4965 46.0598 25.6317 46.5468 25.6317C47.0339 25.6317 47.0339 25.4965 47.0339 25.4518V23.3794L48.8739 20.5588V20.5321C48.8739 20.4906 48.8533 20.4353 48.7559 20.4012Z" fill="white"/>
<path d="M46.7124 25.6317C46.5472 25.6317 46.0455 25.6317 46.0455 25.2942V23.4025L44.2197 20.7631V20.6894C44.2211 20.6234 44.246 20.5595 44.2909 20.508C44.3354 20.4565 44.3972 20.4201 44.4667 20.4047C44.6429 20.35 45.4388 20.2922 45.6406 20.5421L45.6482 20.5521L46.7124 22.0813L47.7865 20.5361C48.0013 20.2902 48.8025 20.3529 48.968 20.4077C49.0352 20.4245 49.0947 20.461 49.1379 20.5118C49.1808 20.5626 49.2047 20.6249 49.2064 20.6894V20.7641L47.3806 23.4035V25.2952C47.3783 25.6317 46.8769 25.6317 46.7124 25.6317ZM46.4119 25.2613C46.6093 25.3024 46.8144 25.3024 47.0122 25.2613V23.3059L48.8058 20.7173C48.6189 20.6805 48.1731 20.6915 48.0721 20.7512L46.7157 22.7096L45.3527 20.7532C45.252 20.6944 44.8158 20.6835 44.6236 20.7193L46.4119 23.3079V25.2613Z" fill="white"/>
<path d="M22.9892 20.3571H22.5656C22.2236 20.3571 21.9463 20.5627 21.9463 20.8164V21.1389C21.9463 21.3926 22.2236 21.5982 22.5656 21.5982H22.9892C23.3312 21.5982 23.6085 21.3926 23.6085 21.1389V20.8164C23.6085 20.5627 23.3312 20.3571 22.9892 20.3571Z" fill="white"/>
</svg>
