<svg width="65" height="30" viewBox="0 0 65 30" fill="none" xmlns="http://www.w3.org/2000/svg">
<path d="M58.013 12.6034C57.3683 12.2077 56.384 12.0099 55.0945 12.0099H51.7175L50.4619 18.1115H46.0496L46.3383 16.7269H49.0023L49.3248 15.1748H46.6605L46.9492 13.7902H49.6811L50.0546 12.0099H44.4885L43.3005 17.792H41.2642L42.4692 12.0099H39.5675L38.3795 17.792H36.3941L37.565 12.0099H34.6632L33.4074 18.1115H28.9614L29.2499 16.7269H31.9141L32.2366 15.1748H29.5723L29.8608 13.7902H32.6268L32.9662 12.0099H15.6234L14.6392 16.8486L12.6877 12.0099H9.66715L8.03809 19.8917H10.9229L11.9071 14.9314L13.8077 19.8917H24.1421L25.3978 13.7902H27.0099L25.7542 19.8917H52.9222L53.7029 16.0421L54.9756 19.8917H57.8603L56.5367 16.7421L56.8422 16.6812C57.504 16.5595 58.0301 16.2856 58.3865 15.8595C58.7428 15.4487 58.9294 14.9162 58.9294 14.2619C58.9465 13.5467 58.641 12.999 58.013 12.6034ZM21.6306 18.1115H17.2186L17.507 16.7269H20.2731L20.5785 15.1748H17.8464L18.1179 13.8054H22.53L21.6306 18.1115ZM55.6374 15.4487C55.3491 15.6313 54.9247 15.7226 54.3476 15.7226H53.7709L54.212 13.6076H54.6363C55.1113 13.6076 55.4676 13.6837 55.7054 13.8206C55.892 13.9271 56.1127 14.1402 56.1127 14.551C56.1127 15.0531 55.8581 15.3118 55.6374 15.4487Z" fill="white"/>
</svg>
