<svg width="65" height="30" viewBox="0 0 65 30" fill="none" xmlns="http://www.w3.org/2000/svg">
<path d="M12.9761 14.8859C12.9702 14.69 12.8691 14.5893 12.6788 14.5837H11.656C11.4122 14.5949 11.2874 14.7236 11.2814 14.9586V16.6878C11.2874 16.9284 11.4241 17.0515 11.6917 17.0627H12.6253C12.7205 17.0627 12.8037 17.0291 12.8691 16.962C12.9345 16.9116 12.9702 16.8445 12.9702 16.7605V14.8859H12.9761ZM9.97314 14.6396C9.9791 14.2088 10.0802 13.8786 10.2824 13.6548C10.3835 13.5596 10.5143 13.4813 10.6748 13.4141C10.8414 13.347 10.996 13.3134 11.1506 13.3134H13.0237C13.8503 13.319 14.2725 13.7443 14.2844 14.5893V17.1914C14.2785 17.4936 14.1536 17.751 13.9098 17.9693C13.6719 18.1987 13.3865 18.3162 13.0534 18.3218H11.2814V20.1965H9.97314V14.6396Z" fill="white"/>
<path d="M16.6573 16.8053C16.6573 16.8781 16.6929 16.934 16.7643 16.9788C16.8238 17.0291 16.907 17.0571 17.0022 17.0571H18.0072C18.2331 17.0571 18.3521 16.9732 18.358 16.8053V16.4528C18.358 16.2569 18.2391 16.1618 17.9952 16.1618H16.9962C16.8654 16.1618 16.7762 16.1841 16.7227 16.2233C16.6751 16.2681 16.6513 16.3576 16.6513 16.4919V16.8053H16.6573ZM18.3639 14.8523C18.3699 14.662 18.251 14.5725 18.0131 14.5781H15.3728V13.3134H18.3461C19.2143 13.3246 19.6543 13.7219 19.6662 14.4998V17.1522C19.6603 17.488 19.5473 17.7622 19.3392 17.9861C19.1192 18.2155 18.8337 18.3274 18.4829 18.3274H16.687C15.8129 18.3218 15.3669 17.9469 15.355 17.197V16.173C15.3609 15.3895 15.7831 14.9922 16.6276 14.981H18.3699V14.8523" fill="white"/>
<path d="M23.3469 18.9318C23.448 18.9262 23.5432 18.8926 23.6145 18.8254C23.6859 18.7639 23.7216 18.6967 23.7216 18.624V18.3218H22.0446C21.8246 18.3218 21.6522 18.2938 21.5213 18.2435C21.3846 18.1931 21.2478 18.1092 21.1051 17.9804C20.9743 17.8462 20.8791 17.7063 20.8197 17.5608C20.7602 17.4265 20.7305 17.2586 20.7305 17.0515V13.3134H22.0446V16.6542C22.0446 16.9228 22.1636 17.0571 22.3955 17.0571H23.3231C23.4361 17.0571 23.5313 17.0236 23.6086 16.9564C23.6859 16.8948 23.7216 16.8277 23.7216 16.7437V13.3134H25.0239V18.8366C25.0179 19.2452 24.9049 19.5753 24.6909 19.8215C24.4709 20.0678 24.1735 20.1965 23.7929 20.202H20.7305V18.9318H23.3469Z" fill="white"/>
<path d="M26.0527 17.0571H28.3897C28.6038 17.0515 28.7168 16.9676 28.7227 16.8165V16.7046C28.7227 16.671 28.7109 16.6374 28.693 16.5983C28.6395 16.5031 28.5741 16.4528 28.5027 16.4528H27.3372C26.9923 16.4472 26.7009 16.3353 26.4511 16.117C26.2014 15.9155 26.0765 15.6749 26.0646 15.3839V14.4382C26.0765 13.6995 26.5047 13.3246 27.3431 13.3134H30.0548V14.5837H27.7594C27.4918 14.5837 27.355 14.662 27.355 14.8187V14.9418C27.355 15.1041 27.4918 15.1825 27.7713 15.1825H28.9249C29.2341 15.1881 29.4958 15.3 29.7158 15.5182C29.9359 15.7365 30.0488 15.9939 30.0607 16.2961V17.2194C30.0548 17.4768 29.9239 17.7398 29.6801 17.9972C29.5612 18.1259 29.4363 18.2099 29.3174 18.2602C29.1925 18.305 29.0201 18.3274 28.8001 18.3274H26.0587V17.0571" fill="white"/>
<path d="M32.3026 16.8053C32.3026 16.8781 32.3382 16.934 32.4094 16.9788C32.469 17.0291 32.5464 17.0571 32.6474 17.0571H33.6584C33.8843 17.0571 34.0031 16.9732 34.0093 16.8053V16.4528C34.0093 16.2569 33.8901 16.1618 33.6464 16.1618H32.6474C32.5166 16.1618 32.4272 16.1841 32.3738 16.2233C32.3262 16.2681 32.3026 16.3576 32.3026 16.4919V16.8053ZM34.0093 14.8523C34.0151 14.662 33.8963 14.5725 33.6522 14.5781H31.0121V13.3134H33.9853C34.8536 13.3246 35.2935 13.7219 35.3055 14.4998V17.1522C35.2997 17.488 35.1867 17.7622 34.9785 17.9861C34.7584 18.2155 34.4729 18.3274 34.1223 18.3274H32.3204C31.4462 18.3218 31.0002 17.9469 30.9883 17.197V16.173C30.9942 15.3895 31.4164 14.9922 32.2608 14.981H34.0093V14.8523Z" fill="white"/>
<path d="M36.3755 12.5914C36.3817 12.2501 36.5183 11.9759 36.7802 11.7688C37.0356 11.5618 37.3687 11.4498 37.785 11.4443H38.6176V12.6698H38.112C37.8326 12.6754 37.6957 12.7985 37.6898 13.0447V13.3133H38.6176V14.5836H37.6898V18.3273H36.3755V12.5914Z" fill="white"/>
<path d="M42.3463 14.8299V14.8019C42.3463 14.7348 42.3165 14.6788 42.2631 14.6396C42.2035 14.6005 42.1261 14.5781 42.0371 14.5781H41.1213C41.0021 14.5781 40.907 14.6117 40.8358 14.6732C40.7464 14.7292 40.6988 14.8075 40.6988 14.9027V15.4119L42.3463 14.8299ZM40.7228 16.6262V16.7046C40.7228 16.8053 40.7526 16.8892 40.806 16.9452C40.8477 17.018 40.9011 17.0571 40.9785 17.0571H43.6723V18.3274H40.806C40.5444 18.3274 40.3421 18.305 40.1993 18.2602C40.0449 18.2099 39.9021 18.1316 39.7772 18.0196C39.6344 17.8853 39.5334 17.751 39.4858 17.6055C39.4324 17.46 39.4026 17.2642 39.4026 17.0236L39.3906 14.483C39.4026 13.7163 39.8309 13.3246 40.6694 13.3134H42.4415C43.2559 13.3246 43.6723 13.7331 43.6842 14.5277V15.5294L40.7228 16.6262Z" fill="white"/>
<path d="M46.4613 18.3273C46.2651 18.3273 46.0805 18.3105 45.9142 18.2769C45.7416 18.249 45.5694 18.1762 45.3968 18.0475C45.2185 17.902 45.0935 17.7341 45.0223 17.5494C44.9507 17.3704 44.9151 17.1633 44.9151 16.9395V14.5724C44.9093 14.3821 44.9271 14.2086 44.9747 14.0631C45.0161 13.9177 45.1113 13.7722 45.2541 13.6323C45.4146 13.4868 45.5752 13.386 45.7478 13.3357C45.9142 13.2965 46.0987 13.2741 46.3065 13.2741H48.3165V13.5707H46.3541C46.0093 13.5707 45.7358 13.6378 45.5334 13.7722C45.3314 13.9177 45.2243 14.1695 45.2243 14.5276V16.8947C45.2243 17.0626 45.2541 17.2249 45.3075 17.3816C45.3612 17.5327 45.4564 17.6726 45.5872 17.7901C45.73 17.8908 45.8727 17.958 46.0093 17.9803C46.1521 18.0083 46.3065 18.0251 46.4732 18.0251H48.3463V18.3217H46.4613" fill="white"/>
<path d="M53.4898 15.2552H50.8556C50.5403 15.2608 50.2907 15.3559 50.1123 15.5294C49.9278 15.7084 49.8388 15.9547 49.8388 16.268V17.0235C49.8388 17.169 49.8566 17.3033 49.8863 17.4264C49.922 17.5551 49.9993 17.667 50.1301 17.7622C50.3561 17.9412 50.6118 18.0252 50.8854 18.0252H52.4907C53.157 18.0196 53.4959 17.6894 53.4959 17.0291V15.2552H53.4898ZM53.8051 16.9619C53.8051 17.1522 53.7873 17.3201 53.7633 17.4656C53.7219 17.6279 53.6325 17.779 53.5017 17.9244C53.2282 18.1986 52.8834 18.3329 52.4791 18.3218H50.909C50.4988 18.3218 50.1715 18.2098 49.9161 17.9804C49.6542 17.7566 49.5234 17.4432 49.5234 17.0403V16.2792C49.5354 15.4174 49.9932 14.9754 50.8912 14.9586H53.5017V14.6228C53.5017 14.3486 53.4185 14.108 53.246 13.9009C53.1392 13.7666 53.0142 13.6771 52.8714 13.6323C52.7287 13.5987 52.5623 13.5764 52.3839 13.5764H49.5354V13.2798H52.2353C52.4849 13.2798 52.705 13.2966 52.907 13.3302C53.008 13.3469 53.1032 13.3861 53.1926 13.4421C53.2878 13.4924 53.371 13.5708 53.4483 13.6715C53.6921 13.9681 53.8109 14.3039 53.8051 14.6844V16.9619Z" fill="white"/>
<path d="M56.7549 13.5764C56.0236 13.5876 55.6607 13.9625 55.6785 14.7012V18.3218H55.3635V14.7068C55.3515 13.7555 55.8271 13.2798 56.8083 13.2798H57.1592V13.5764H56.7549Z" fill="white"/>
<path d="M62.0648 13.5763H59.5792C59.4008 13.5763 59.2403 13.5931 59.0975 13.6322C58.9489 13.6658 58.8003 13.7498 58.6634 13.8897C58.5326 14.0184 58.4494 14.1471 58.4138 14.2702C58.3662 14.3989 58.3484 14.55 58.3542 14.7291V17.0402C58.3542 17.4263 58.4734 17.6837 58.711 17.8236C58.8301 17.8908 58.9609 17.9356 59.1036 17.9691C59.2461 18.0027 59.4128 18.0251 59.5912 18.0251H60.6792C61.0835 18.0251 61.4167 17.9356 61.6724 17.7621C61.9282 17.5942 62.059 17.3088 62.0709 16.9003V13.5763H62.0648ZM62.3801 16.9227C62.3503 17.8796 61.8152 18.3496 60.7686 18.3273H59.6032C59.3591 18.3273 59.1393 18.3049 58.9431 18.2657C58.7407 18.2154 58.5504 18.1034 58.3662 17.9244C58.2292 17.7621 58.1402 17.5998 58.1046 17.4319C58.057 17.264 58.0331 17.0794 58.045 16.8779V14.7291C58.057 13.761 58.5802 13.2741 59.6032 13.2853H62.0709V11.6457H62.3859V16.9227" fill="white"/>
<path d="M2.68883 13.1231C2.78993 13.0783 2.89696 13.0447 2.99806 13.0279C3.18835 12.1774 3.99113 11.5394 4.94852 11.5394C5.91187 11.5394 6.70869 12.1774 6.89902 13.0279C7.19633 13.0783 7.44013 13.1902 7.62449 13.3581C7.63041 13.1958 7.62449 13.0391 7.60665 12.8881C7.48772 11.601 6.34003 10.5937 4.9426 10.5937C3.50353 10.5937 2.33205 11.6681 2.27258 13.0056C2.26663 13.1231 2.26067 13.2406 2.26663 13.3693C2.38557 13.2741 2.52234 13.1902 2.68883 13.1231Z" fill="white"/>
<path d="M6.50613 13.3134H3.30097C3.14636 13.3134 2.98579 13.347 2.82522 13.4141C2.66468 13.4813 2.53386 13.5596 2.43276 13.6548C2.23652 13.8786 2.12949 14.2088 2.12354 14.6396V16.9956C2.12949 17.4265 2.23056 17.7566 2.43276 17.9804C2.53978 18.0756 2.66468 18.1539 2.82522 18.2211C2.99174 18.2882 3.15228 18.3218 3.30097 18.3218H6.50613C7.33271 18.3162 7.75492 17.8853 7.76683 17.0403V14.5893C7.75492 13.7443 7.33271 13.319 6.50613 13.3134Z" fill="white"/>
</svg>
