<svg width="65" height="30" viewBox="0 0 65 30" fill="none" xmlns="http://www.w3.org/2000/svg">
<path fill-rule="evenodd" clip-rule="evenodd" d="M41.274 11.6857C42.1851 11.6857 42.9236 10.9996 42.9236 10.1535C42.9236 9.3069 42.1851 8.62012 41.274 8.62012C40.3639 8.62012 39.6257 9.3069 39.6257 10.1535C39.6257 10.9996 40.3639 11.6857 41.274 11.6857ZM28.6398 12.5132C28.5653 12.687 28.0296 14.0936 26.7338 15.5516V9.31778L23.2814 9.95201V21.2514H26.7338V17.7587C27.7338 19.1527 28.2275 21.2514 28.2275 21.2514H32.3629C31.9538 19.6708 30.1645 16.7563 30.1645 16.7563C31.7704 14.8638 32.4757 12.8473 32.5879 12.5132H28.6398ZM37.7161 12.3952C34.6238 12.4875 33.0541 13.777 33.0541 16.3405V21.2514H36.4276V17.2467C36.4276 15.7117 36.6438 15.0537 38.6035 14.991V12.4402C38.2737 12.3751 37.7161 12.3952 37.7161 12.3952ZM17.4913 13.7574C17.0684 13.7316 16.0894 13.6727 16.0894 12.8535C16.0894 11.8649 17.4989 11.8649 18.0276 11.8649C18.9572 11.8649 20.1611 12.1203 21.0208 12.3593C21.0208 12.3593 21.5004 12.5165 21.9086 12.6774L21.9465 12.687V9.97952L21.8944 9.96519C20.8798 9.63522 19.6999 9.31778 17.5126 9.31778C13.7411 9.31778 12.4048 11.36 12.4048 13.1095C12.4048 14.118 12.8698 16.4915 17.1891 16.7653C17.5553 16.7863 18.527 16.8383 18.527 17.6849C18.527 18.3839 17.7314 18.796 16.3934 18.796C14.9269 18.796 13.5045 18.4485 12.6405 18.1188V20.9073C13.9339 21.2224 15.392 21.3799 17.1009 21.3799C20.7885 21.3799 22.4401 19.4477 22.4401 17.5327C22.4401 15.3613 20.5919 13.9505 17.4913 13.7574ZM39.6016 21.2514H42.9479V12.523H39.6016V21.2514ZM49.2488 9.87425V21.2514H52.5956V9.31778L49.2488 9.87425ZM44.3654 9.87425L47.709 9.31778V21.2514H44.3654V9.87425Z" fill="white"/>
</svg>
