<svg width="65" height="30" viewBox="0 0 65 30" fill="none" xmlns="http://www.w3.org/2000/svg">
<path d="M38.5825 8.24176C35.7288 8.24176 33.1786 9.72209 33.1786 12.4571C33.1786 15.5936 37.7015 15.8103 37.7015 17.386C37.7015 18.0494 36.9418 18.6434 35.6442 18.6434C33.8027 18.6434 32.4264 17.8135 32.4264 17.8135L31.8375 20.5734C31.8375 20.5734 33.423 21.2744 35.528 21.2744C38.648 21.2744 41.1031 19.7214 41.1031 16.9396C41.1031 13.6253 36.5614 13.4151 36.5614 11.9526C36.5614 11.4328 37.185 10.8634 38.4789 10.8634C39.9387 10.8634 41.1298 11.4669 41.1298 11.4669L41.7062 8.8013C41.7062 8.8013 40.4102 8.24176 38.5825 8.24176ZM12.4739 8.44296L12.4048 8.84531C12.4048 8.84531 13.6054 9.06519 14.6867 9.50386C16.0789 10.0068 16.1781 10.2997 16.4126 11.2091L18.9676 21.0669H22.3928L27.6695 8.44296H24.2522L20.8616 17.0261L19.4781 9.7506C19.3512 8.91795 18.7085 8.44296 17.9218 8.44296H12.4739ZM29.0437 8.44296L26.3629 21.0669H29.6216L32.2929 8.44292H29.0437V8.44296ZM47.2184 8.44296C46.4326 8.44296 46.0163 8.86399 45.7108 9.59973L40.9366 21.0669H44.3539L45.0151 19.1557H49.1783L49.5804 21.0669H52.5956L49.9651 8.44296H47.2184ZM47.6628 11.8536L48.6758 16.5907H45.962L47.6628 11.8536Z" fill="white"/>
</svg>
